<svg xmlns="http://www.w3.org/2000/svg" viewBox="0 0 27.35 23.69"><defs><style>.cls-1{fill:#00d1b2;}</style></defs><title>Asset 2</title><g id="Layer_2" data-name="Layer 2"><g id="Layer_1-2" data-name="Layer 1"><path class="cls-1" d="M20.51,23.69H6.84L0,11.84,6.84,0H20.51l6.84,11.84ZM7.32,22.86H20l6.36-11L20,.83H7.32L1,11.84Z"/><path class="cls-1" d="M10.68,9.61a2,2,0,1,0-2,2A2,2,0,0,0,10.68,9.61Z"/><rect class="cls-1" x="7.99" y="10.99" width="1.4" height="5.8"/><path class="cls-1" d="M10.68,17.9a2,2,0,1,0-2,2A2,2,0,0,0,10.68,17.9Z"/><path class="cls-1" d="M15.66,5.46a2,2,0,1,0-2,2A2,2,0,0,0,15.66,5.46Z"/><rect class="cls-1" x="12.97" y="6.84" width="1.4" height="5.8"/><path class="cls-1" d="M15.66,13.75a2,2,0,1,0-2,2A2,2,0,0,0,15.66,13.75Z"/><path class="cls-1" d="M20.64,9.61a2,2,0,1,0-2,2A2,2,0,0,0,20.64,9.61Z"/><rect class="cls-1" x="17.95" y="10.99" width="1.4" height="5.8"/><path class="cls-1" d="M20.64,17.9a2,2,0,1,0-2,2A2,2,0,0,0,20.64,17.9Z"/></g></g></svg>