<svg xmlns="http://www.w3.org/2000/svg" viewBox="0 0 85.24 73.82"><defs><style>.cls-1{fill:#00d1b2;}</style></defs><title>Asset 1</title><g id="Layer_2" data-name="Layer 2"><g id="Layer_1-2" data-name="Layer 1"><path class="cls-1" d="M63.67,27.32a4.77,4.77,0,1,1,0-2.94H78L63.93,0H21.31L10,19.55,18.87,15H35.21a4.77,4.77,0,1,1,0,2.94H19.59L7.29,24.28,0,36.91,14.15,61.42l8-4.14H38.43a4.77,4.77,0,1,1,0,2.94H22.82L15.62,64l5.69,9.86H63.93L76.3,52.4,55.54,41.62H39.93a4.77,4.77,0,1,1,0-2.94H56.26L77.77,49.86l7.47-13-5.35-9.28-.61-.31Z"/></g></g></svg>